<?xml version="1.0" encoding="UTF-8"?>
<svg xmlns="http://www.w3.org/2000/svg" xmlns:xlink="http://www.w3.org/1999/xlink" width="px" height="px" viewBox="0 0 12 12" version="1.1">
<g id="surface1">
<path style=" stroke:none;fill-rule:nonzero;fill:rgb(0%,0%,0%);fill-opacity:1;" d="M 5.886719 5.621094 L 4.976562 5.621094 L 4.976562 4.101562 L 6.054688 4.101562 C 6.640625 4.101562 6.972656 4.363281 6.972656 4.835938 C 6.972656 5.339844 6.585938 5.621094 5.882812 5.621094 Z M 6.046875 6.222656 L 4.976562 6.222656 L 4.976562 7.898438 L 6.09375 7.898438 C 6.824219 7.898438 7.210938 7.605469 7.210938 7.054688 C 7.210938 6.503906 6.8125 6.222656 6.046875 6.222656 Z M 12 5.695312 L 12 6.304688 C 11.4375 6.359375 11.089844 6.777344 10.886719 7.4375 C 10.683594 8.097656 10.65625 8.90625 10.675781 9.53125 C 10.699219 10.179688 10.191406 10.78125 9.507812 10.78125 L 2.492188 10.78125 C 1.808594 10.78125 1.300781 10.179688 1.324219 9.53125 C 1.34375 8.90625 1.316406 8.097656 1.113281 7.4375 C 0.910156 6.777344 0.5625 6.359375 0 6.304688 L 0 5.695312 C 0.5625 5.640625 0.910156 5.222656 1.113281 4.5625 C 1.316406 3.902344 1.34375 3.09375 1.324219 2.46875 C 1.300781 1.816406 1.808594 1.21875 2.492188 1.21875 L 9.507812 1.21875 C 10.195312 1.21875 10.699219 1.816406 10.675781 2.46875 C 10.65625 3.09375 10.683594 3.902344 10.886719 4.5625 C 11.089844 5.222656 11.4375 5.640625 12 5.695312 Z M 8.035156 7.101562 C 8.035156 6.425781 7.558594 5.9375 6.851562 5.859375 L 6.851562 5.832031 C 7.371094 5.746094 7.78125 5.261719 7.78125 4.722656 C 7.78125 3.957031 7.175781 3.457031 6.25 3.457031 L 4.167969 3.457031 L 4.167969 8.542969 L 6.261719 8.542969 C 7.367188 8.542969 8.035156 8 8.035156 7.101562 Z M 8.035156 7.101562 "/>
</g>
</svg>
