<?xml version="1.0" encoding="UTF-8"?>
<svg xmlns="http://www.w3.org/2000/svg" xmlns:xlink="http://www.w3.org/1999/xlink" width="px" height="px" viewBox="0 0 12 12" version="1.1">
<g id="surface1">
<path style=" stroke:none;fill-rule:nonzero;fill:rgb(0%,0%,0%);fill-opacity:1;" d="M 11.773438 5.464844 L 6.535156 0.226562 C 6.230469 -0.0742188 5.742188 -0.0742188 5.441406 0.226562 L 4.355469 1.3125 L 5.734375 2.695312 C 6.054688 2.585938 6.421875 2.660156 6.679688 2.914062 C 6.9375 3.171875 7.007812 3.542969 6.898438 3.863281 L 8.226562 5.195312 C 8.550781 5.082031 8.921875 5.15625 9.175781 5.410156 C 9.535156 5.773438 9.535156 6.351562 9.175781 6.714844 C 8.816406 7.074219 8.234375 7.074219 7.875 6.714844 C 7.605469 6.441406 7.539062 6.046875 7.675781 5.714844 L 6.429688 4.476562 L 6.429688 7.738281 C 6.519531 7.78125 6.601562 7.839844 6.675781 7.914062 C 7.03125 8.273438 7.03125 8.855469 6.675781 9.214844 C 6.316406 9.574219 5.730469 9.574219 5.371094 9.214844 C 5.011719 8.855469 5.011719 8.273438 5.371094 7.914062 C 5.460938 7.824219 5.5625 7.757812 5.671875 7.710938 L 5.671875 4.417969 C 5.5625 4.371094 5.460938 4.304688 5.371094 4.21875 C 5.097656 3.945312 5.035156 3.546875 5.175781 3.210938 L 3.816406 1.851562 L 0.226562 5.441406 C -0.0742188 5.742188 -0.0742188 6.234375 0.226562 6.535156 L 5.464844 11.773438 C 5.765625 12.074219 6.257812 12.074219 6.558594 11.773438 L 11.773438 6.558594 C 12.074219 6.257812 12.074219 5.765625 11.773438 5.464844 "/>
</g>
</svg>
