<?xml version="1.0" encoding="UTF-8"?>
<svg xmlns="http://www.w3.org/2000/svg" xmlns:xlink="http://www.w3.org/1999/xlink" width="150px" height="150px" viewBox="0 0 12 12" version="1.1">
<g id="surface1">
<path style=" stroke:none;fill-rule:nonzero;fill:rgb(0%,0%,0%);fill-opacity:1;" d="M 6 0.148438 C 2.683594 0.148438 0 2.835938 0 6.148438 C 0 8.800781 1.71875 11.046875 4.101562 11.839844 C 4.402344 11.898438 4.511719 11.710938 4.511719 11.550781 C 4.511719 11.410156 4.507812 11.03125 4.503906 10.53125 C 2.835938 10.894531 2.484375 9.726562 2.484375 9.726562 C 2.210938 9.035156 1.816406 8.851562 1.816406 8.851562 C 1.273438 8.476562 1.859375 8.484375 1.859375 8.484375 C 2.460938 8.527344 2.777344 9.101562 2.777344 9.101562 C 3.3125 10.019531 4.183594 9.757812 4.523438 9.601562 C 4.578125 9.214844 4.734375 8.949219 4.90625 8.800781 C 3.574219 8.648438 2.171875 8.132812 2.171875 5.835938 C 2.171875 5.179688 2.40625 4.644531 2.789062 4.226562 C 2.722656 4.074219 2.519531 3.464844 2.84375 2.636719 C 2.84375 2.636719 3.34375 2.476562 4.492188 3.253906 C 4.972656 3.117188 5.480469 3.050781 5.992188 3.050781 C 6.503906 3.050781 7.011719 3.117188 7.492188 3.253906 C 8.632812 2.476562 9.132812 2.636719 9.132812 2.636719 C 9.457031 3.464844 9.253906 4.074219 9.195312 4.226562 C 9.578125 4.644531 9.808594 5.179688 9.808594 5.835938 C 9.808594 8.140625 8.40625 8.648438 7.070312 8.796875 C 7.28125 8.976562 7.476562 9.34375 7.476562 9.90625 C 7.476562 10.707031 7.46875 11.351562 7.46875 11.546875 C 7.46875 11.707031 7.574219 11.894531 7.882812 11.832031 C 10.28125 11.046875 12 8.796875 12 6.148438 C 12 2.835938 9.3125 0.148438 6 0.148438 "/>
</g>
</svg>
