<?xml version="1.0" encoding="UTF-8"?>
<svg xmlns="http://www.w3.org/2000/svg" xmlns:xlink="http://www.w3.org/1999/xlink" width="px" height="px" viewBox="0 0 12 12" version="1.1">
<g id="surface1">
<path style=" stroke:none;fill-rule:nonzero;fill:rgb(0%,0%,0%);fill-opacity:1;" d="M 0 0 L 12 0 L 12 12 L 0 12 Z M 11.015625 9.136719 C 10.929688 8.589844 10.574219 8.128906 9.515625 7.703125 C 9.148438 7.527344 8.738281 7.410156 8.617188 7.132812 C 8.570312 6.964844 8.566406 6.875 8.59375 6.777344 C 8.667969 6.457031 9.050781 6.359375 9.351562 6.449219 C 9.546875 6.507812 9.726562 6.660156 9.839844 6.898438 C 10.355469 6.5625 10.355469 6.5625 10.71875 6.335938 C 10.582031 6.125 10.515625 6.035156 10.425781 5.945312 C 10.109375 5.59375 9.691406 5.414062 9.007812 5.429688 L 8.65625 5.472656 C 8.316406 5.554688 7.996094 5.738281 7.800781 5.976562 C 7.230469 6.621094 7.394531 7.746094 8.085938 8.210938 C 8.765625 8.722656 9.765625 8.835938 9.890625 9.316406 C 10.011719 9.898438 9.457031 10.085938 8.910156 10.019531 C 8.503906 9.929688 8.277344 9.726562 8.03125 9.351562 L 7.117188 9.878906 C 7.222656 10.117188 7.339844 10.222656 7.523438 10.429688 C 8.390625 11.308594 10.566406 11.265625 10.957031 9.929688 C 10.972656 9.882812 11.078125 9.578125 10.992188 9.105469 Z M 6.527344 5.515625 L 5.402344 5.515625 C 5.402344 6.484375 5.398438 7.449219 5.398438 8.417969 C 5.398438 9.035156 5.429688 9.597656 5.328125 9.773438 C 5.164062 10.117188 4.738281 10.074219 4.546875 10.011719 C 4.347656 9.914062 4.246094 9.78125 4.128906 9.585938 C 4.097656 9.535156 4.074219 9.488281 4.066406 9.488281 L 3.152344 10.050781 C 3.304688 10.367188 3.527344 10.636719 3.816406 10.808594 C 4.242188 11.0625 4.816406 11.148438 5.417969 11.011719 C 5.8125 10.898438 6.148438 10.664062 6.324219 10.304688 C 6.578125 9.839844 6.527344 9.269531 6.523438 8.632812 C 6.53125 7.605469 6.523438 6.578125 6.523438 5.542969 Z M 6.527344 5.515625 "/>
</g>
</svg>
