<?xml version="1.0" encoding="UTF-8"?>
<svg xmlns="http://www.w3.org/2000/svg" xmlns:xlink="http://www.w3.org/1999/xlink" width="150px" height="150px" viewBox="0 0 12 12" version="1.1">
<g id="surface1">
<path style=" stroke:none;fill-rule:nonzero;fill:rgb(0%,0%,0%);fill-opacity:1;" d="M 10.222656 10.226562 L 8.445312 10.226562 L 8.445312 7.441406 C 8.445312 6.777344 8.433594 5.921875 7.519531 5.921875 C 6.59375 5.921875 6.453125 6.644531 6.453125 7.390625 L 6.453125 10.226562 L 4.675781 10.226562 L 4.675781 4.5 L 6.382812 4.5 L 6.382812 5.28125 L 6.40625 5.28125 C 6.644531 4.832031 7.222656 4.355469 8.089844 4.355469 C 9.890625 4.355469 10.222656 5.539062 10.222656 7.082031 Z M 2.667969 3.714844 C 2.097656 3.714844 1.636719 3.253906 1.636719 2.683594 C 1.636719 2.113281 2.097656 1.652344 2.667969 1.652344 C 3.238281 1.652344 3.699219 2.113281 3.699219 2.683594 C 3.699219 3.253906 3.238281 3.714844 2.667969 3.714844 Z M 3.558594 10.226562 L 1.777344 10.226562 L 1.777344 4.5 L 3.558594 4.5 Z M 11.113281 0 L 0.886719 0 C 0.394531 0 0 0.386719 0 0.863281 L 0 11.136719 C 0 11.613281 0.394531 12 0.886719 12 L 11.109375 12 C 11.601562 12 12 11.613281 12 11.136719 L 12 0.863281 C 12 0.386719 11.601562 0 11.109375 0 Z M 11.113281 0 "/>
</g>
</svg>
